# xmcd
#
# Track frame offsets: 
#        150
#        15028
#        31163
#        46447
#        63144
#        78980
#        93649
#        109819
#        125995
#        141554
#
# Disc length: 2088 seconds
#
# Revision: 2
# Processed by: cddbd v1.5.2PL0 Copyright (c) Steve Scherf et al.
# Submitted via: ExactAudioCopy v0.99pb5
#
DISCID=8108260a
DTITLE=Barbara Dex - Waiting for a new moon
DYEAR=1995
DGENRE=Country
TTITLE0=Waiting for a new moon
TTITLE1=True love
TTITLE2=A matter of time
TTITLE3=I belong to you
TTITLE4=Real good intentions
TTITLE5=There's got to be an easier way
TTITLE6=My day
TTITLE7=Like a boomerang
TTITLE8=Greatest love of all
TTITLE9=Time to say goodbye
EXTD=
EXTT0=
EXTT1=
EXTT2=
EXTT3=
EXTT4=
EXTT5=
EXTT6=
EXTT7=
EXTT8=
EXTT9=
PLAYORDER=
